Tans Sans 200921-Regular.ufo
<glyph name="exclam" format="2">
	<advance width="500"/>
	<unicode hex="0021"/>
	<outline>
		<contour>
			<point x="189" y="0" type="line"/>
			<point x="318" y="0" type="line"/>
			<point x="318" y="129" type="line"/>
			<point x="189" y="129" type="line"/>
		</contour>
		<contour>
			<point x="177" y="696" type="line"/>
			<point x="191" y="216" type="line"/>
			<point x="317" y="216" type="line"/>
			<point x="331" y="696" type="line"/>
		</contour>
	</outline>
</glyph>
<glyph name="period" format="2">
	<advance width="229"/>
	<unicode hex="002E"/>
	<outline>
		<contour>
			<point x="50" y="0" type="line"/>
			<point x="179" y="0" type="line"/>
			<point x="179" y="129" type="line"/>
			<point x="50" y="129" type="line"/>
		</contour>
	</outline>
</glyph>
<glyph name="slash" format="2">
	<advance width="445"/>
	<unicode hex="002F"/>
	<outline>
		<contour>
			<point x="282" y="756" type="line"/>
			<point x="50" y="-148" type="line"/>
			<point x="176" y="-148" type="line"/>
			<point x="408" y="756" type="line"/>
		</contour>
	</outline>
</glyph>
<glyph name="zero" format="2">
  <advance width="710"/>
  <unicode hex="0030"/>
  <outline>
    <contour>
      <point x="419.712" y="127" type="curve" smooth="yes"/>
      <point x="172.712" y="127" type="line"/>
      <point x="172.712" y="508" type="line" smooth="yes"/>
      <point x="172.712" y="607"/>
      <point x="214.712" y="629"/>
      <point x="293.712" y="629" type="curve" smooth="yes"/>
      <point x="540.712" y="629" type="line"/>
      <point x="540.712" y="248" type="line" smooth="yes"/>
      <point x="540.712" y="149"/>
      <point x="498.712" y="127"/>
    </contour>
    <contour>
      <point x="671.712" y="230" type="curve" smooth="yes"/>
      <point x="671.712" y="525" type="line"/>
      <point x="671.712" y="679"/>
      <point x="624.712" y="756"/>
      <point x="468.712" y="756" type="curve" smooth="yes"/>
      <point x="245.712" y="756" type="line" smooth="yes"/>
      <point x="116.712" y="756"/>
      <point x="41.7123" y="663"/>
      <point x="41.7123" y="526" type="curve" smooth="yes"/>
      <point x="41.7123" y="230" type="line" smooth="yes"/>
      <point x="41.7123" y="76"/>
      <point x="89.7123" y="-1.13687e-12"/>
      <point x="245.712" y="-1.13687e-12" type="curve" smooth="yes"/>
      <point x="467.712" y="-1.13687e-12" type="line" smooth="yes"/>
      <point x="606.712" y="-1.13687e-12"/>
      <point x="671.712" y="83"/>
    </contour>
    <contour>
      <point x="540.712" y="629" type="line"/>
      <point x="172.712" y="286" type="line"/>
      <point x="172.712" y="127" type="line"/>
      <point x="540.712" y="470" type="line"/>
    </contour>
  </outline>
</glyph>
<glyph name="one" format="2">
	<advance width="710"/>
	<unicode hex="0031"/>
	<outline>
		<contour>
			<point x="457" y="755" type="line"/>
			<point x="327" y="755" type="line"/>
			<point x="327" y="-1" type="line"/>
			<point x="457" y="-1" type="line"/>
		</contour>
		<contour>
			<point x="327" y="567" type="curve"/>
			<point x="327" y="755" type="line"/>
			<point x="304" y="684"/>
			<point x="232" y="644"/>
			<point x="128" y="644" type="curve"/>
			<point x="128" y="521" type="line"/>
			<point x="227" y="521"/>
			<point x="298" y="537"/>
		</contour>
		<contour>
			<point x="105" y="126" type="line"/>
			<point x="105" y="-2" type="line"/>
			<point x="646" y="-1" type="line"/>
			<point x="646" y="127" type="line"/>
		</contour>
	</outline>
</glyph>
<glyph name="two" format="2">
  <advance width="710"/>
  <unicode hex="0032"/>
  <outline>
    <contour>
      <point x="70" y="125" type="curve"/>
      <point x="70" y="-1.13687e-13" type="line"/>
      <point x="207" y="-1.13687e-13" type="line"/>
      <point x="206" y="96" type="line"/>
      <point x="206" y="303"/>
      <point x="641" y="255"/>
      <point x="641" y="527" type="curve" smooth="yes"/>
      <point x="641" y="596" type="line"/>
      <point x="641" y="707"/>
      <point x="575" y="756"/>
      <point x="455" y="756" type="curve" smooth="yes"/>
      <point x="261" y="756" type="line" smooth="yes"/>
      <point x="151" y="756"/>
      <point x="75" y="697"/>
      <point x="75" y="596" type="curve" smooth="yes"/>
      <point x="75" y="507" type="line"/>
      <point x="212" y="507" type="line"/>
      <point x="212" y="567" type="line" smooth="yes"/>
      <point x="212" y="614"/>
      <point x="245" y="631"/>
      <point x="286" y="631" type="curve"/>
      <point x="433" y="631" type="line"/>
      <point x="485" y="631"/>
      <point x="505" y="610"/>
      <point x="505" y="556" type="curve" smooth="yes"/>
      <point x="505" y="355"/>
      <point x="70" y="432"/>
    </contour>
    <contour>
      <point x="181" y="125" type="line"/>
      <point x="151" y="-1.13687e-13" type="line"/>
      <point x="646" y="-1.13687e-13" type="line"/>
      <point x="646" y="125" type="line"/>
    </contour>
  </outline>
</glyph>
<glyph name="three" format="2">
  <advance width="710"/>
  <unicode hex="0033"/>
  <outline>
    <contour>
      <point x="72.3467" y="148" type="curve"/>
      <point x="72.3467" y="20" type="line"/>
      <point x="179.347" y="-7"/>
      <point x="275.321" y="-10"/>
      <point x="353.321" y="-10" type="curve" smooth="yes"/>
      <point x="557.321" y="-10"/>
      <point x="646.321" y="53"/>
      <point x="646.321" y="196" type="curve"/>
      <point x="646.321" y="264" type="line"/>
      <point x="646.321" y="379"/>
      <point x="589.321" y="443"/>
      <point x="486.321" y="443" type="curve" smooth="yes"/>
      <point x="363.321" y="443" type="line"/>
      <point x="378.321" y="404" type="line"/>
      <point x="629.321" y="613" type="line"/>
      <point x="629.321" y="755" type="line"/>
      <point x="69.3467" y="755" type="line"/>
      <point x="69.3467" y="630" type="line"/>
      <point x="464.321" y="630" type="line"/>
      <point x="463.321" y="613" type="line"/>
      <point x="201.347" y="421" type="line"/>
      <point x="201.347" y="344" type="line"/>
      <point x="433.321" y="344" type="line"/>
      <point x="495.321" y="344"/>
      <point x="518.321" y="321"/>
      <point x="518.321" y="270" type="curve" smooth="yes"/>
      <point x="518.321" y="216" type="line" smooth="yes"/>
      <point x="518.321" y="147"/>
      <point x="462.321" y="117"/>
      <point x="325.321" y="117" type="curve" smooth="yes"/>
      <point x="247.321" y="117"/>
      <point x="171.347" y="122"/>
    </contour>
  </outline>
</glyph>
<glyph name="four" format="2">
  <advance width="710"/>
  <unicode hex="0034"/>
  <outline>
    <contour>
      <point x="579" y="762" type="line"/>
      <point x="449" y="762" type="line"/>
      <point x="449" y="6" type="line"/>
      <point x="579" y="6" type="line"/>
    </contour>
    <contour>
      <point x="389" y="762" type="line"/>
      <point x="43" y="287" type="line"/>
      <point x="106.57" y="287"/>
      <point x="168.302" y="288.943"/>
      <point x="206" y="287" type="curve"/>
      <point x="259.163" y="355"/>
      <point x="404.06" y="576.75"/>
      <point x="539" y="762" type="curve"/>
    </contour>
    <contour>
      <point x="43" y="287" type="line"/>
      <point x="43" y="169" type="line"/>
      <point x="678" y="169" type="line"/>
      <point x="678" y="297" type="line"/>
    </contour>
  </outline>
</glyph>
<glyph name="five" format="2">
  <advance width="710"/>
  <unicode hex="0035"/>
  <outline>
    <contour>
      <point x="70" y="342" type="line"/>
      <point x="206" y="342" type="line"/>
      <point x="221" y="629" type="line"/>
      <point x="605" y="629" type="line"/>
      <point x="605" y="756" type="line"/>
      <point x="95" y="756" type="line"/>
    </contour>
    <contour>
      <point x="451" y="461" type="curve"/>
      <point x="204" y="461" type="line"/>
      <point x="204" y="342" type="line"/>
      <point x="423" y="342" type="line"/>
      <point x="474" y="342"/>
      <point x="497" y="325"/>
      <point x="497" y="274" type="curve" smooth="yes"/>
      <point x="497" y="213" type="line" smooth="yes"/>
      <point x="497" y="134"/>
      <point x="436" y="125"/>
      <point x="315" y="125" type="curve" smooth="yes"/>
      <point x="239" y="125"/>
      <point x="138" y="137"/>
      <point x="69" y="150" type="curve"/>
      <point x="70" y="25" type="line"/>
      <point x="169" y="5"/>
      <point x="235" y="-3.97904e-13"/>
      <point x="343" y="-3.97904e-13" type="curve" smooth="yes"/>
      <point x="540" y="-3.97904e-13"/>
      <point x="634" y="51"/>
      <point x="634" y="202" type="curve" smooth="yes"/>
      <point x="634" y="297" type="line" smooth="yes"/>
      <point x="634" y="412"/>
      <point x="571" y="461"/>
    </contour>
  </outline>
</glyph>
<glyph name="six" format="2">
	<advance width="710"/>
	<unicode hex="0036"/>
	<outline>
		<contour>
			<point x="213" y="199" type="curve"/>
			<point x="213" y="263" type="line" smooth="yes"/>
			<point x="213" y="314"/>
			<point x="253" y="341"/>
			<point x="325" y="341" type="curve" smooth="yes"/>
			<point x="453" y="341" type="line" smooth="yes"/>
			<point x="505" y="341"/>
			<point x="527" y="314"/>
			<point x="527" y="267" type="curve" smooth="yes"/>
			<point x="527" y="199" type="line"/>
			<point x="527" y="152"/>
			<point x="505" y="125"/>
			<point x="454" y="125" type="curve" smooth="yes"/>
			<point x="287" y="125" type="line"/>
			<point x="236" y="125"/>
			<point x="213" y="152"/>
		</contour>
		<contour>
			<point x="79" y="401" type="curve" smooth="yes"/>
			<point x="79" y="237" type="line"/>
			<point x="79" y="49"/>
			<point x="157" y="0"/>
			<point x="370" y="0" type="curve" smooth="yes"/>
			<point x="583" y="0"/>
			<point x="649" y="48"/>
			<point x="649" y="245" type="curve"/>
			<point x="649" y="398"/>
			<point x="586" y="466"/>
			<point x="436" y="466" type="curve" smooth="yes"/>
			<point x="367" y="466" type="line" smooth="yes"/>
			<point x="300" y="466"/>
			<point x="232" y="447"/>
			<point x="190" y="390" type="curve"/>
			<point x="215" y="393" type="line"/>
			<point x="217" y="581"/>
			<point x="309" y="639"/>
			<point x="444" y="639" type="curve" smooth="yes"/>
			<point x="484" y="639"/>
			<point x="527" y="635"/>
			<point x="573" y="627" type="curve"/>
			<point x="573" y="754" type="line"/>
			<point x="541" y="760"/>
			<point x="498" y="766"/>
			<point x="449" y="766" type="curve" smooth="yes"/>
			<point x="291" y="766"/>
			<point x="79" y="704"/>
		</contour>
	</outline>
</glyph>
<glyph name="seven" format="2">
	<advance width="710"/>
	<unicode hex="0037"/>
	<outline>
		<contour>
			<point x="249" y="0" type="curve"/>
			<point x="386" y="0" type="line"/>
			<point x="386" y="302.048"/>
			<point x="553.429" y="528.699"/>
			<point x="635" y="649" type="curve"/>
			<point x="635" y="756" type="line"/>
			<point x="64" y="756" type="line"/>
			<point x="64" y="629" type="line"/>
			<point x="554" y="629" type="line"/>
			<point x="514" y="675" type="line"/>
			<point x="432.429" y="568.699"/>
			<point x="249" y="302.048"/>
		</contour>
	</outline>
</glyph>
<glyph name="eight" format="2">
	<advance width="710"/>
	<unicode hex="0038"/>
	<outline>
		<contour>
			<point x="65" y="596" type="curve" smooth="yes"/>
			<point x="65" y="528" type="line"/>
			<point x="65" y="442"/>
			<point x="103" y="405"/>
			<point x="192" y="405" type="curve"/>
			<point x="165" y="451" type="line"/>
			<point x="165" y="339" type="line"/>
			<point x="192" y="377" type="line"/>
			<point x="93" y="377"/>
			<point x="52" y="330"/>
			<point x="52" y="235" type="curve" smooth="yes"/>
			<point x="52" y="160" type="line" smooth="yes"/>
			<point x="52" y="57"/>
			<point x="129" y="0"/>
			<point x="266" y="0" type="curve" smooth="yes"/>
			<point x="449" y="0" type="line" smooth="yes"/>
			<point x="582" y="0"/>
			<point x="657" y="57"/>
			<point x="657" y="160" type="curve" smooth="yes"/>
			<point x="657" y="235" type="line" smooth="yes"/>
			<point x="657" y="340"/>
			<point x="614" y="377"/>
			<point x="503" y="377" type="curve"/>
			<point x="542" y="339" type="line"/>
			<point x="542" y="443" type="line"/>
			<point x="513" y="404" type="line"/>
			<point x="599" y="404"/>
			<point x="640" y="442"/>
			<point x="640" y="528" type="curve" smooth="yes"/>
			<point x="640" y="596" type="line" smooth="yes"/>
			<point x="640" y="699"/>
			<point x="573" y="756"/>
			<point x="454" y="756" type="curve" smooth="yes"/>
			<point x="251" y="756" type="line" smooth="yes"/>
			<point x="132" y="756"/>
			<point x="65" y="699"/>
		</contour>
		<contour>
			<point x="271" y="631" type="curve"/>
			<point x="434" y="631" type="line"/>
			<point x="485" y="631"/>
			<point x="508" y="614"/>
			<point x="508" y="568" type="curve"/>
			<point x="508" y="515" type="line" smooth="yes"/>
			<point x="508" y="468"/>
			<point x="485" y="451"/>
			<point x="434" y="451" type="curve" smooth="yes"/>
			<point x="271" y="451" type="line"/>
			<point x="220" y="451"/>
			<point x="197" y="468"/>
			<point x="197" y="515" type="curve"/>
			<point x="197" y="567" type="line" smooth="yes"/>
			<point x="197" y="614"/>
			<point x="220" y="631"/>
		</contour>
		<contour>
			<point x="260" y="334" type="curve"/>
			<point x="445" y="334" type="line" smooth="yes"/>
			<point x="496" y="334"/>
			<point x="526" y="316"/>
			<point x="525" y="270" type="curve" smooth="yes"/>
			<point x="524" y="189" type="line" smooth="yes"/>
			<point x="523" y="142"/>
			<point x="501" y="125"/>
			<point x="450" y="125" type="curve" smooth="yes"/>
			<point x="253" y="125" type="line" smooth="yes"/>
			<point x="204" y="125"/>
			<point x="188" y="142"/>
			<point x="187" y="189" type="curve" smooth="yes"/>
			<point x="186" y="270" type="line" smooth="yes"/>
			<point x="185" y="317"/>
			<point x="209" y="334"/>
		</contour>
	</outline>
</glyph>
<glyph name="nine" format="2">
	<advance width="710"/>
	<unicode hex="0039"/>
	<outline>
		<contour>
			<point x="497" y="557" type="curve"/>
			<point x="497" y="463" type="line" smooth="yes"/>
			<point x="497" y="417"/>
			<point x="457" y="385"/>
			<point x="383" y="385" type="curve" smooth="yes"/>
			<point x="264" y="385" type="line" smooth="yes"/>
			<point x="212" y="385"/>
			<point x="190" y="412"/>
			<point x="190" y="459" type="curve" smooth="yes"/>
			<point x="189" y="557" type="line" smooth="yes"/>
			<point x="189" y="604"/>
			<point x="212" y="631"/>
			<point x="263" y="631" type="curve" smooth="yes"/>
			<point x="423" y="631" type="line" smooth="yes"/>
			<point x="474" y="631"/>
			<point x="497" y="604"/>
		</contour>
		<contour>
			<point x="633" y="385" type="curve" smooth="yes"/>
			<point x="633" y="521" type="line"/>
			<point x="633" y="691"/>
			<point x="554" y="756"/>
			<point x="388" y="756" type="curve" smooth="yes"/>
			<point x="251" y="756" type="line" smooth="yes"/>
			<point x="141" y="756"/>
			<point x="68" y="697"/>
			<point x="68" y="596" type="curve" smooth="yes"/>
			<point x="68" y="421" type="line" smooth="yes"/>
			<point x="68" y="318"/>
			<point x="131" y="260"/>
			<point x="281" y="260" type="curve" smooth="yes"/>
			<point x="359" y="260" type="line" smooth="yes"/>
			<point x="412" y="260"/>
			<point x="473" y="278"/>
			<point x="522" y="316" type="curve"/>
			<point x="497" y="363" type="line"/>
			<point x="495" y="205"/>
			<point x="407" y="117"/>
			<point x="273" y="117" type="curve" smooth="yes"/>
			<point x="233" y="117"/>
			<point x="170" y="121"/>
			<point x="124" y="129" type="curve"/>
			<point x="124" y="2" type="line"/>
			<point x="156" y="-4"/>
			<point x="219" y="-10"/>
			<point x="268" y="-10" type="curve" smooth="yes"/>
			<point x="425" y="-10"/>
			<point x="633" y="82"/>
		</contour>
	</outline>
</glyph>
<glyph name="colon" format="2">
  <advance width="242"/>
  <unicode hex="003A"/>
  <outline>
    <contour>
      <point x="65" y="0" type="line"/>
      <point x="194" y="0" type="line"/>
      <point x="194" y="129" type="line"/>
      <point x="65" y="129" type="line"/>
    </contour>
    <contour>
      <point x="65" y="556" type="line"/>
      <point x="65" y="427" type="line"/>
      <point x="194" y="427" type="line"/>
      <point x="194" y="556" type="line"/>
    </contour>
  </outline>
</glyph>
<glyph name="A" format="2">
	<advance width="729"/>
	<unicode hex="0041"/>
	<outline>
		<contour>
			<point x="27" y="0" type="line"/>
			<point x="163" y="0" type="line"/>
			<point x="363" y="673" type="line"/>
			<point x="306" y="630" type="line"/>
			<point x="423" y="630" type="line"/>
			<point x="363" y="673" type="line"/>
			<point x="561" y="0" type="line"/>
			<point x="702" y="0" type="line"/>
			<point x="470" y="756" type="line"/>
			<point x="264" y="756" type="line"/>
		</contour>
		<contour>
			<point x="192" y="315" type="line"/>
			<point x="192" y="191" type="line"/>
			<point x="529" y="191" type="line"/>
			<point x="529" y="315" type="line"/>
		</contour>
	</outline>
</glyph>
<glyph name="B" format="2">
  <advance width="733"/>
  <unicode hex="0042"/>
  <outline>
    <contour>
      <point x="534.265" y="405" type="curve"/>
      <point x="534.265" y="421" type="line"/>
      <point x="619.704" y="421"/>
      <point x="645.819" y="487.884"/>
      <point x="645.819" y="575.943" type="curve" smooth="yes"/>
      <point x="645.819" y="677.839"/>
      <point x="595.726" y="756"/>
      <point x="469.384" y="756" type="curve" smooth="yes"/>
      <point x="166.987" y="756" type="line"/>
      <point x="166.987" y="629" type="line"/>
      <point x="431.62" y="629" type="line"/>
      <point x="497.786" y="629"/>
      <point x="533.607" y="606"/>
      <point x="533.607" y="546" type="curve" smooth="yes"/>
      <point x="533.607" y="476"/>
      <point x="490.333" y="453"/>
      <point x="435.962" y="453" type="curve"/>
      <point x="132.589" y="453" type="line"/>
      <point x="132.589" y="326" type="line"/>
      <point x="449.168" y="326" type="line"/>
      <point x="514.634" y="325"/>
      <point x="537.936" y="283"/>
      <point x="537.936" y="222" type="curve" smooth="yes"/>
      <point x="537.936" y="153"/>
      <point x="501.333" y="128"/>
      <point x="446.962" y="128" type="curve" smooth="yes"/>
      <point x="154.781" y="128" type="line"/>
      <point x="155.891" y="1.81899e-12" type="line"/>
      <point x="445.105" y="1.81899e-12" type="line" smooth="yes"/>
      <point x="593.03" y="1.81899e-12"/>
      <point x="673.074" y="47.8664"/>
      <point x="673.074" y="196" type="curve" smooth="yes"/>
      <point x="673.074" y="356"/>
      <point x="613.355" y="405"/>
    </contour>
    <contour>
      <point x="214.248" y="1.81899e-12" type="line"/>
      <point x="214.248" y="756" type="line"/>
      <point x="83.9997" y="756" type="line"/>
      <point x="83.9997" y="1.81899e-12" type="line"/>
    </contour>
  </outline>
  <guideline angle="90" x="-287" y="0"/>
</glyph>
<glyph name="C" format="2">
  <advance width="685"/>
  <unicode hex="0043"/>
  <outline>
    <contour>
      <point x="199" y="507" type="curve" smooth="yes"/>
      <point x="199" y="249" type="line"/>
      <point x="199" y="149"/>
      <point x="238" y="127"/>
      <point x="315" y="127" type="curve" smooth="yes"/>
      <point x="637.665" y="127" type="line"/>
      <point x="637.665" y="0" type="line"/>
      <point x="268" y="0" type="line" smooth="yes"/>
      <point x="130" y="0"/>
      <point x="63" y="71"/>
      <point x="63" y="230" type="curve"/>
      <point x="63" y="528" type="line"/>
      <point x="63" y="663"/>
      <point x="156" y="756"/>
      <point x="268" y="756" type="curve" smooth="yes"/>
      <point x="638.487" y="756" type="line"/>
      <point x="637.665" y="629" type="line"/>
      <point x="316" y="629" type="line" smooth="yes"/>
      <point x="239" y="629"/>
      <point x="199" y="607"/>
    </contour>
  </outline>
</glyph>
<glyph name="D" format="2">
  <advance width="740"/>
  <unicode hex="0044"/>
  <outline>
    <contour>
      <point x="60.621" y="3" type="line"/>
      <point x="471.989" y="3" type="line" smooth="yes"/>
      <point x="607.989" y="3"/>
      <point x="669.989" y="76"/>
      <point x="669.989" y="234" type="curve" smooth="yes"/>
      <point x="669.989" y="528" type="line" smooth="yes"/>
      <point x="669.989" y="686"/>
      <point x="607.989" y="759"/>
      <point x="471.989" y="759" type="curve" smooth="yes"/>
      <point x="60.621" y="759" type="line"/>
    </contour>
    <contour>
      <point x="424.989" y="632" type="line"/>
      <point x="531.989" y="632"/>
      <point x="533.989" y="576"/>
      <point x="533.989" y="523" type="curve" smooth="yes"/>
      <point x="533.989" y="239" type="line" smooth="yes"/>
      <point x="533.989" y="186"/>
      <point x="531.989" y="130"/>
      <point x="424.989" y="130" type="curve" smooth="yes"/>
      <point x="190.621" y="130" type="line"/>
      <point x="190.621" y="632" type="line"/>
    </contour>
  </outline>
</glyph>
<glyph name="E" format="2">
	<advance width="727"/>
	<unicode hex="0045"/>
	<outline>
		<contour>
			<point x="244" y="0" type="line"/>
			<point x="244" y="756" type="line"/>
			<point x="114" y="756" type="line"/>
			<point x="114" y="0" type="line"/>
		</contour>
		<contour>
			<point x="656" y="127" type="line"/>
			<point x="244" y="127" type="line"/>
			<point x="244" y="0" type="line"/>
			<point x="656" y="0" type="line"/>
		</contour>
		<contour>
			<point x="244" y="322" type="line"/>
			<point x="578" y="322" type="line"/>
			<point x="578" y="449" type="line"/>
			<point x="244" y="449" type="line"/>
		</contour>
		<contour>
			<point x="244" y="629" type="line"/>
			<point x="656" y="629" type="line"/>
			<point x="656" y="756" type="line"/>
			<point x="244" y="756" type="line"/>
		</contour>
	</outline>
</glyph>
<glyph name="F" format="2">
  <advance width="606"/>
  <unicode hex="0046"/>
  <outline>
    <contour>
      <point x="214" y="756" type="line"/>
      <point x="84" y="756" type="line"/>
      <point x="84" y="1.81899e-12" type="line"/>
      <point x="214" y="1.81899e-12" type="line"/>
    </contour>
    <contour>
      <point x="594" y="629" type="line"/>
      <point x="594" y="756" type="line"/>
      <point x="214" y="756" type="line"/>
      <point x="214" y="629" type="line"/>
    </contour>
    <contour>
      <point x="214" y="431" type="line"/>
      <point x="214" y="304" type="line"/>
      <point x="519" y="304" type="line"/>
      <point x="519" y="431" type="line"/>
    </contour>
  </outline>
</glyph>
<glyph name="G" format="2">
  <advance width="774"/>
  <unicode hex="0047"/>
  <outline>
    <contour>
      <point x="576" y="229" type="line"/>
      <point x="576" y="141"/>
      <point x="535" y="127"/>
      <point x="462" y="127" type="curve"/>
      <point x="319.247" y="127" type="line" smooth="yes"/>
      <point x="242" y="127"/>
      <point x="201" y="146.655"/>
      <point x="201" y="247.383" type="curve"/>
      <point x="201" y="507" type="line" smooth="yes"/>
      <point x="201" y="607"/>
      <point x="241" y="629"/>
      <point x="318" y="629" type="curve" smooth="yes"/>
      <point x="674" y="629" type="line"/>
      <point x="674" y="756" type="line"/>
      <point x="270" y="756" type="line" smooth="yes"/>
      <point x="158" y="756"/>
      <point x="65" y="663"/>
      <point x="65" y="528" type="curve"/>
      <point x="65" y="230" type="line"/>
      <point x="65" y="71"/>
      <point x="132" y="0"/>
      <point x="270" y="0" type="curve" smooth="yes"/>
      <point x="408" y="0" type="line" smooth="yes"/>
      <point x="518" y="0"/>
      <point x="573" y="39"/>
      <point x="584" y="124" type="curve"/>
      <point x="602" y="124" type="line"/>
      <point x="601" y="0" type="line"/>
      <point x="706" y="0" type="line"/>
      <point x="706" y="429" type="line"/>
      <point x="409" y="429" type="line"/>
      <point x="409" y="309" type="line"/>
      <point x="576" y="309" type="line"/>
    </contour>
  </outline>
  <guideline angle="90" x="-470" y="0"/>
</glyph>
<glyph name="I" format="2">
	<advance width="674"/>
	<unicode hex="0049"/>
	<outline>
		<contour>
			<point x="589" y="755" type="line"/>
			<point x="85" y="755" type="line"/>
			<point x="85" y="630" type="line"/>
			<point x="316" y="630" type="line"/>
			<point x="272" y="673" type="line"/>
			<point x="272" y="82" type="line"/>
			<point x="316" y="125" type="line"/>
			<point x="85" y="125" type="line"/>
			<point x="85" y="0" type="line"/>
			<point x="589" y="0" type="line"/>
			<point x="589" y="125" type="line"/>
			<point x="356" y="125" type="line"/>
			<point x="400" y="82" type="line"/>
			<point x="400" y="673" type="line"/>
			<point x="356" y="630" type="line"/>
			<point x="589" y="630" type="line"/>
		</contour>
	</outline>
</glyph>
<glyph name="J" format="2">
  <advance width="554"/>
  <unicode hex="004A"/>
  <outline>
    <contour>
      <point x="471" y="176" type="curve" smooth="yes"/>
      <point x="471" y="756" type="line"/>
      <point x="108" y="756" type="line"/>
      <point x="108" y="629" type="line"/>
      <point x="386" y="629" type="line"/>
      <point x="341" y="680" type="line"/>
      <point x="341" y="186" type="line" smooth="yes"/>
      <point x="341" y="144"/>
      <point x="324" y="124"/>
      <point x="280" y="124" type="curve" smooth="yes"/>
      <point x="50" y="124" type="line"/>
      <point x="50" y="0" type="line"/>
      <point x="314" y="0" type="line" smooth="yes"/>
      <point x="423" y="0"/>
      <point x="471" y="54"/>
    </contour>
  </outline>
</glyph>
<glyph name="L" format="2">
  <advance width="625"/>
  <unicode hex="004C"/>
  <outline>
    <contour>
      <point x="218" y="0" type="line"/>
      <point x="218" y="756" type="line"/>
      <point x="83" y="756" type="line"/>
      <point x="83" y="0" type="line"/>
    </contour>
    <contour>
      <point x="596" y="127" type="line"/>
      <point x="218" y="127" type="line"/>
      <point x="218" y="0" type="line"/>
      <point x="596" y="0" type="line"/>
    </contour>
  </outline>
</glyph>
<glyph name="M" format="2">
	<advance width="999"/>
	<unicode hex="004D"/>
	<guideline x="908" y="263" angle="90"/>
	<guideline x="92" y="481" angle="90"/>
	<outline>
		<contour>
			<point x="92" y="-1" type="line"/>
			<point x="206" y="-1" type="line"/>
			<point x="245" y="675" type="line"/>
			<point x="197" y="630" type="line"/>
			<point x="296" y="630" type="line"/>
			<point x="236" y="674" type="line"/>
			<point x="395" y="43" type="line"/>
			<point x="597" y="43" type="line"/>
			<point x="741" y="674" type="line"/>
			<point x="686" y="630" type="line"/>
			<point x="784" y="630" type="line"/>
			<point x="743" y="675" type="line"/>
			<point x="782" y="0" type="line"/>
			<point x="907" y="0" type="line"/>
			<point x="866" y="756" type="line"/>
			<point x="659" y="756" type="line"/>
			<point x="501" y="133" type="line"/>
			<point x="557" y="177" type="line"/>
			<point x="450" y="177" type="line"/>
			<point x="507" y="134" type="line"/>
			<point x="341" y="756" type="line"/>
			<point x="134" y="756" type="line"/>
		</contour>
	</outline>
</glyph>
<glyph name="N" format="2">
  <advance width="790"/>
  <unicode hex="004E"/>
  <anchor x="393" y="756" name="top"/>
  <anchor x="379" y="0" name="bottom"/>
  <outline>
    <contour>
      <point x="85" y="0" type="line"/>
      <point x="205" y="0" type="line"/>
      <point x="207" y="678" type="line"/>
      <point x="188" y="674" type="line"/>
      <point x="499" y="0" type="line"/>
      <point x="700" y="0" type="line"/>
      <point x="700" y="756" type="line"/>
      <point x="579" y="756" type="line"/>
      <point x="579" y="79" type="line"/>
      <point x="598" y="83" type="line"/>
      <point x="288" y="756" type="line"/>
      <point x="85" y="756" type="line"/>
    </contour>
  </outline>
</glyph>
<glyph name="O" format="2">
  <advance width="794"/>
  <unicode hex="004F"/>
  <anchor x="384" y="0" name="bottom"/>
  <anchor x="726" y="10" name="ogonek"/>
  <anchor x="384" y="756" name="top"/>
  <anchor x="791" y="756" name="topright"/>
  <anchor x="-23" y="756" name="topleft"/>
  <anchor x="384" y="378" name="center"/>
  <outline>
    <contour>
      <point x="742.861" y="225" type="curve" smooth="yes"/>
      <point x="742.861" y="529" type="line" smooth="yes"/>
      <point x="742.861" y="688"/>
      <point x="675.861" y="760"/>
      <point x="539.861" y="760" type="curve" smooth="yes"/>
      <point x="265" y="760" type="line" smooth="yes"/>
      <point x="156" y="760"/>
      <point x="61" y="667"/>
      <point x="61" y="530" type="curve" smooth="yes"/>
      <point x="61" y="225" type="line" smooth="yes"/>
      <point x="61" y="68"/>
      <point x="126" y="-5"/>
      <point x="265" y="-5" type="curve" smooth="yes"/>
      <point x="538.861" y="-5" type="line" smooth="yes"/>
      <point x="657.861" y="-5"/>
      <point x="742.861" y="78"/>
    </contour>
    <contour>
      <point x="491.861" y="121" type="curve" smooth="yes"/>
      <point x="312" y="121" type="line" smooth="yes"/>
      <point x="238" y="121"/>
      <point x="196" y="143"/>
      <point x="196" y="242" type="curve" smooth="yes"/>
      <point x="196" y="513" type="line" smooth="yes"/>
      <point x="196" y="612"/>
      <point x="238" y="634"/>
      <point x="312" y="634" type="curve" smooth="yes"/>
      <point x="491.861" y="634" type="line" smooth="yes"/>
      <point x="565.861" y="634"/>
      <point x="607.861" y="612"/>
      <point x="607.861" y="513" type="curve" smooth="yes"/>
      <point x="607.861" y="242" type="line" smooth="yes"/>
      <point x="607.861" y="143"/>
      <point x="565.861" y="121"/>
    </contour>
  </outline>
</glyph>
<glyph name="P" format="2">
  <advance width="671"/>
  <unicode hex="0050"/>
  <outline>
    <contour>
      <point x="193.179" y="0" type="line"/>
      <point x="193.179" y="629" type="line"/>
      <point x="193.179" y="629"/>
      <point x="321.948" y="627.646"/>
      <point x="409.937" y="629" type="curve" smooth="yes"/>
      <point x="487.669" y="630.196"/>
      <point x="497.083" y="585.186"/>
      <point x="497.083" y="512.186" type="curve" smooth="yes"/>
      <point x="497.083" y="438.186"/>
      <point x="475.571" y="394.731"/>
      <point x="396.571" y="394.731" type="curve"/>
      <point x="179.179" y="394.731" type="line"/>
      <point x="179.179" y="268.731" type="line"/>
      <point x="413.047" y="268.731" type="line" smooth="yes"/>
      <point x="542.105" y="268.731"/>
      <point x="623.937" y="342.634"/>
      <point x="623.937" y="454.634" type="curve" smooth="yes"/>
      <point x="623.937" y="583.342" type="line" smooth="yes"/>
      <point x="623.937" y="682.342"/>
      <point x="554.392" y="756"/>
      <point x="424.492" y="756" type="curve" smooth="yes"/>
      <point x="63.1789" y="756" type="line"/>
      <point x="63.1789" y="0" type="line"/>
    </contour>
  </outline>
</glyph>
<glyph name="Q" format="2">
  <advance width="795"/>
  <unicode hex="0051"/>
  <outline>
    <component base="O" xOffset="3.63798e-12"/>
    <contour>
      <point x="568.68" y="94" type="line"/>
      <point x="420.475" y="94" type="line"/>
      <point x="568.68" y="-136.72" type="line"/>
      <point x="715.68" y="-136.72" type="line"/>
    </contour>
  </outline>
</glyph>
<glyph name="R" format="2">
  <advance width="724"/>
  <unicode hex="0052"/>
  <outline>
    <contour>
      <point x="56" y="0" type="line"/>
      <point x="186" y="0" type="line"/>
      <point x="186" y="756" type="line"/>
      <point x="56" y="756" type="line"/>
    </contour>
    <contour>
      <point x="492" y="329" type="curve"/>
      <point x="503" y="329" type="line"/>
      <point x="596.26" y="329"/>
      <point x="638" y="400.452"/>
      <point x="638" y="487.648" type="curve" smooth="yes"/>
      <point x="638" y="601" type="line" smooth="yes"/>
      <point x="638" y="712.773"/>
      <point x="560" y="756"/>
      <point x="451" y="756" type="curve" smooth="yes"/>
      <point x="141" y="756" type="line"/>
      <point x="141" y="629" type="line"/>
      <point x="141" y="629"/>
      <point x="423" y="629"/>
      <point x="423" y="629" type="curve" smooth="yes"/>
      <point x="498.007" y="629"/>
      <point x="512" y="592"/>
      <point x="512" y="541" type="curve" smooth="yes"/>
      <point x="512" y="456"/>
      <point x="478.724" y="436.601"/>
      <point x="399" y="437" type="curve"/>
      <point x="173.5" y="437" type="line"/>
      <point x="173.5" y="310" type="line"/>
      <point x="347" y="310" type="line"/>
      <point x="512" y="0" type="line"/>
      <point x="512" y="0"/>
      <point x="667" y="-1"/>
      <point x="667" y="-1" type="curve"/>
      <point x="667" y="-1"/>
      <point x="492" y="318"/>
    </contour>
  </outline>
</glyph>
<glyph name="S" format="2">
	<advance width="749"/>
	<unicode hex="0053"/>
	<guideline x="-836" y="0" angle="0"/>
	<guideline x="-909" y="0" angle="0"/>
	<guideline x="-930" y="0" angle="0"/>
	<outline>
		<contour>
			<point x="82" y="583" type="curve" smooth="yes"/>
			<point x="82" y="533" type="line" smooth="yes"/>
			<point x="82" y="404"/>
			<point x="158" y="366"/>
			<point x="220" y="355" type="curve" smooth="yes"/>
			<point x="432" y="317" type="line" smooth="yes"/>
			<point x="504" y="304"/>
			<point x="516" y="288"/>
			<point x="516" y="216" type="curve" smooth="yes"/>
			<point x="516" y="142"/>
			<point x="500" y="127"/>
			<point x="428" y="127" type="curve" smooth="yes"/>
			<point x="90" y="127" type="line"/>
			<point x="90" y="0" type="line"/>
			<point x="457" y="0" type="line" smooth="yes"/>
			<point x="578" y="0"/>
			<point x="655" y="72"/>
			<point x="655" y="213" type="curve" smooth="yes"/>
			<point x="655" y="264" type="line" smooth="yes"/>
			<point x="655" y="390"/>
			<point x="578" y="428"/>
			<point x="515" y="439" type="curve" smooth="yes"/>
			<point x="300" y="477" type="line" smooth="yes"/>
			<point x="230" y="489"/>
			<point x="221" y="509"/>
			<point x="221" y="560" type="curve" smooth="yes"/>
			<point x="221" y="614"/>
			<point x="237" y="629"/>
			<point x="297" y="629" type="curve" smooth="yes"/>
			<point x="613" y="629" type="line"/>
			<point x="613" y="756" type="line"/>
			<point x="263" y="756" type="line" smooth="yes"/>
			<point x="158" y="756"/>
			<point x="82" y="680"/>
		</contour>
	</outline>
</glyph>
<glyph name="T" format="2">
  <advance width="662"/>
  <unicode hex="0054"/>
  <outline>
    <contour>
      <point x="269" y="756" type="line"/>
      <point x="269" y="0" type="line"/>
      <point x="399" y="0" type="line"/>
      <point x="399" y="756" type="line"/>
    </contour>
    <contour>
      <point x="642" y="629" type="line"/>
      <point x="642" y="756" type="line"/>
      <point x="399" y="756" type="line"/>
      <point x="399" y="629" type="line"/>
    </contour>
    <contour>
      <point x="269" y="629" type="line"/>
      <point x="269" y="756" type="line"/>
      <point x="27" y="756" type="line"/>
      <point x="27" y="629" type="line"/>
    </contour>
  </outline>
</glyph>
<glyph name="U" format="2">
  <advance width="711"/>
  <unicode hex="0055"/>
  <outline>
    <contour>
      <point x="665" y="235" type="curve" smooth="yes"/>
      <point x="665" y="756" type="line"/>
      <point x="534" y="756" type="line"/>
      <point x="536" y="237" type="line" smooth="yes"/>
      <point x="536.32" y="154"/>
      <point x="514" y="120"/>
      <point x="447" y="120" type="curve" smooth="yes"/>
      <point x="297" y="120" type="line" smooth="yes"/>
      <point x="230" y="120"/>
      <point x="206" y="152"/>
      <point x="206" y="235" type="curve" smooth="yes"/>
      <point x="206" y="756" type="line"/>
      <point x="76" y="756" type="line"/>
      <point x="76" y="235" type="line" smooth="yes"/>
      <point x="76" y="28"/>
      <point x="152" y="-11"/>
      <point x="324" y="-11" type="curve" smooth="yes"/>
      <point x="333" y="-11"/>
      <point x="398" y="-11"/>
      <point x="410" y="-11" type="curve" smooth="yes"/>
      <point x="582" y="-11"/>
      <point x="665" y="36"/>
    </contour>
  </outline>
</glyph>
<glyph name="V" format="2">
  <advance width="751"/>
  <unicode hex="0056"/>
  <outline>
    <contour>
      <point x="42" y="756" type="line"/>
      <point x="281" y="0" type="line"/>
      <point x="486" y="0" type="line"/>
      <point x="720" y="756" type="line"/>
      <point x="587" y="756" type="line"/>
      <point x="387" y="83" type="line"/>
      <point x="437" y="126" type="line"/>
      <point x="325" y="126" type="line"/>
      <point x="389" y="83" type="line"/>
      <point x="182" y="756" type="line"/>
    </contour>
  </outline>
</glyph>
<glyph name="W" format="2">
	<advance width="1019"/>
	<unicode hex="0057"/>
	<guideline x="23" y="546" angle="0"/>
	<guideline x="23" y="144" angle="0"/>
	<guideline x="971" y="595" angle="90"/>
	<guideline x="46" y="733" angle="90"/>
	<outline>
		<contour>
			<point x="973" y="757" type="line"/>
			<point x="856" y="757" type="line"/>
			<point x="752" y="81" type="line"/>
			<point x="792" y="126" type="line"/>
			<point x="693" y="126" type="line"/>
			<point x="754" y="82" type="line"/>
			<point x="611" y="733" type="line"/>
			<point x="420" y="733" type="line"/>
			<point x="281" y="82" type="line"/>
			<point x="338" y="126" type="line"/>
			<point x="237" y="126" type="line"/>
			<point x="279" y="81" type="line"/>
			<point x="175" y="756" type="line"/>
			<point x="46" y="756" type="line"/>
			<point x="160" y="0" type="line"/>
			<point x="375" y="0" type="line"/>
			<point x="510" y="643" type="line"/>
			<point x="454" y="599" type="line"/>
			<point x="561" y="599" type="line"/>
			<point x="501" y="642" type="line"/>
			<point x="642" y="0" type="line"/>
			<point x="857" y="0" type="line"/>
		</contour>
	</outline>
</glyph>
<glyph name="X" format="2">
  <advance width="766"/>
  <unicode hex="0058"/>
  <outline>
    <contour>
      <point x="55.2922" y="0" type="line"/>
      <point x="206.484" y="0" type="line"/>
      <point x="362.612" y="310" type="line"/>
      <point x="406.071" y="310" type="line"/>
      <point x="570.258" y="0" type="line"/>
      <point x="715.804" y="0" type="line"/>
      <point x="489.047" y="428" type="line"/>
      <point x="494.047" y="331" type="line"/>
      <point x="706.804" y="756" type="line"/>
      <point x="573.258" y="756" type="line"/>
      <point x="406.248" y="434" type="line"/>
      <point x="364.789" y="434" type="line"/>
      <point x="208.484" y="756" type="line"/>
      <point x="68.5829" y="756" type="line"/>
      <point x="272.758" y="331" type="line"/>
      <point x="285.813" y="428" type="line"/>
    </contour>
  </outline>
  <guideline angle="90" x="-1173" y="0"/>
  <guideline angle="90" x="-1234" y="0"/>
</glyph>
<glyph name="Z" format="2">
  <advance width="657"/>
  <unicode hex="005A"/>
  <outline>
    <contour>
      <point x="588" y="0" type="line"/>
      <point x="588" y="127" type="line"/>
      <point x="196" y="127" type="line"/>
      <point x="196" y="150" type="line"/>
      <point x="588" y="548" type="line"/>
      <point x="588" y="754" type="line"/>
      <point x="86" y="754" type="line"/>
      <point x="86" y="633" type="line"/>
      <point x="453" y="633" type="line"/>
      <point x="453" y="607" type="line"/>
      <point x="60" y="211" type="line"/>
      <point x="60" y="0" type="line"/>
    </contour>
  </outline>
</glyph>
<glyph name="backslash" format="2">
	<advance width="445"/>
	<unicode hex="005C"/>
	<outline>
		<contour>
			<point x="163" y="756" type="line"/>
			<point x="37" y="756" type="line"/>
			<point x="269" y="-148" type="line"/>
			<point x="395" y="-148" type="line"/>
		</contour>
	</outline>
</glyph>
<glyph name="a" format="2">
  <advance width="593"/>
  <unicode hex="0061"/>
  <outline>
    <contour>
      <point x="410" y="379" type="curve" smooth="yes"/>
      <point x="410" y="284" type="line"/>
      <point x="532" y="284" type="line"/>
      <point x="532" y="396" type="line" smooth="yes"/>
      <point x="532" y="500"/>
      <point x="476" y="563"/>
      <point x="372" y="563" type="curve" smooth="yes"/>
      <point x="72" y="563" type="line"/>
      <point x="72" y="439" type="line"/>
      <point x="350" y="439" type="line" smooth="yes"/>
      <point x="389" y="439"/>
      <point x="410" y="418"/>
    </contour>
    <contour>
      <point x="428" y="0" type="line"/>
      <point x="532" y="0" type="line"/>
      <point x="532" y="284" type="line"/>
      <point x="410" y="284" type="line"/>
      <point x="411" y="195" type="line"/>
      <point x="427" y="125" type="line"/>
    </contour>
    <contour>
      <point x="433" y="336" type="line"/>
      <point x="170" y="336" type="line" smooth="yes"/>
      <point x="86" y="336"/>
      <point x="40" y="290"/>
      <point x="40" y="206" type="curve" smooth="yes"/>
      <point x="40" y="156" type="line" smooth="yes"/>
      <point x="40" y="52"/>
      <point x="96" y="-4"/>
      <point x="200" y="-4" type="curve" smooth="yes"/>
      <point x="255" y="-4" type="line" smooth="yes"/>
      <point x="343" y="-4"/>
      <point x="392" y="44"/>
      <point x="410" y="113" type="curve"/>
      <point x="493" y="113" type="line"/>
      <point x="411" y="212" type="line"/>
      <point x="411" y="122"/>
      <point x="362" y="113"/>
      <point x="317" y="113" type="curve" smooth="yes"/>
      <point x="215" y="113" type="line" smooth="yes"/>
      <point x="176" y="113"/>
      <point x="155" y="134"/>
      <point x="155" y="171" type="curve" smooth="yes"/>
      <point x="155" y="208"/>
      <point x="176" y="229"/>
      <point x="215" y="229" type="curve" smooth="yes"/>
      <point x="433" y="229" type="line"/>
    </contour>
  </outline>
</glyph>
<glyph name="b" format="2">
  <advance width="602"/>
  <unicode hex="0062"/>
  <outline>
    <contour>
      <point x="365" y="120" type="curve" smooth="yes"/>
      <point x="143" y="120" type="line"/>
      <point x="143" y="1" type="line"/>
      <point x="373" y="0" type="line" smooth="yes"/>
      <point x="528" y="-1"/>
      <point x="564" y="79"/>
      <point x="564" y="245" type="curve" smooth="yes"/>
      <point x="564" y="371" type="line" smooth="yes"/>
      <point x="564" y="516"/>
      <point x="515" y="560"/>
      <point x="407" y="560" type="curve" smooth="yes"/>
      <point x="346" y="560" type="line" smooth="yes"/>
      <point x="261" y="560"/>
      <point x="200" y="521"/>
      <point x="186" y="429" type="curve"/>
      <point x="136" y="429" type="line"/>
      <point x="185" y="340" type="line"/>
      <point x="185" y="396"/>
      <point x="219" y="437"/>
      <point x="278" y="437" type="curve" smooth="yes"/>
      <point x="366" y="437" type="line" smooth="yes"/>
      <point x="425" y="437"/>
      <point x="441" y="413"/>
      <point x="441" y="354" type="curve" smooth="yes"/>
      <point x="441" y="196" type="line" smooth="yes"/>
      <point x="441" y="137"/>
      <point x="424" y="120"/>
    </contour>
    <contour>
      <point x="60" y="778" type="line"/>
      <point x="60" y="1" type="line"/>
      <point x="185" y="1" type="line"/>
      <point x="185" y="355" type="line"/>
      <point x="169" y="433" type="line"/>
      <point x="169" y="778" type="line"/>
    </contour>
  </outline>
  <guideline angle="90" x="-506" y="0"/>
</glyph>
<glyph name="c" format="2">
  <advance width="567"/>
  <unicode hex="0063"/>
  <outline>
    <contour>
      <point x="284" y="119" type="curve" smooth="yes"/>
      <point x="517" y="119" type="line"/>
      <point x="517" y="-3" type="line"/>
      <point x="251" y="-3" type="line" smooth="yes"/>
      <point x="124" y="-3"/>
      <point x="48" y="66"/>
      <point x="48" y="196" type="curve" smooth="yes"/>
      <point x="48" y="303" type="line" smooth="yes"/>
      <point x="48" y="469"/>
      <point x="138" y="566"/>
      <point x="280" y="566" type="curve" smooth="yes"/>
      <point x="518" y="566" type="line"/>
      <point x="518" y="442" type="line"/>
      <point x="284" y="442" type="line" smooth="yes"/>
      <point x="210" y="442"/>
      <point x="177" y="412"/>
      <point x="177" y="340" type="curve" smooth="yes"/>
      <point x="177" y="221" type="line" smooth="yes"/>
      <point x="177" y="149"/>
      <point x="210" y="119"/>
    </contour>
    <contour>
      <point x="284" y="119" type="curve" smooth="yes"/>
      <point x="517" y="119" type="line"/>
      <point x="517" y="-3" type="line"/>
      <point x="251" y="-3" type="line" smooth="yes"/>
      <point x="124" y="-3"/>
      <point x="48" y="66"/>
      <point x="48" y="196" type="curve" smooth="yes"/>
      <point x="48" y="303" type="line" smooth="yes"/>
      <point x="48" y="469"/>
      <point x="138" y="566"/>
      <point x="280" y="566" type="curve" smooth="yes"/>
      <point x="518" y="566" type="line"/>
      <point x="518" y="442" type="line"/>
      <point x="284" y="442" type="line" smooth="yes"/>
      <point x="210" y="442"/>
      <point x="177" y="412"/>
      <point x="177" y="340" type="curve" smooth="yes"/>
      <point x="177" y="221" type="line" smooth="yes"/>
      <point x="177" y="149"/>
      <point x="210" y="119"/>
    </contour>
  </outline>
</glyph>
<glyph name="d" format="2">
  <advance width="621"/>
  <unicode hex="0064"/>
  <outline>
    <contour>
      <point x="567" y="778" type="line"/>
      <point x="438" y="778" type="line"/>
      <point x="438" y="172" type="line"/>
      <point x="443" y="125" type="line"/>
      <point x="458" y="0" type="line"/>
      <point x="567" y="0" type="line"/>
    </contour>
    <contour>
      <point x="168.663" y="201.706" type="curve"/>
      <point x="168.663" y="354.706" type="line"/>
      <point x="168.663" y="410.706"/>
      <point x="201.663" y="436.925"/>
      <point x="257.663" y="436.706" type="curve" smooth="yes"/>
      <point x="438" y="436" type="line"/>
      <point x="478" y="557" type="line"/>
      <point x="229.663" y="556.706" type="line"/>
      <point x="109.663" y="556.706"/>
      <point x="46.6626" y="480.706"/>
      <point x="46.6626" y="343.706" type="curve"/>
      <point x="46.6626" y="211.706" type="line"/>
      <point x="46.6626" y="69.7058"/>
      <point x="109.663" y="-6.2942"/>
      <point x="211.663" y="-6.2942" type="curve"/>
      <point x="303" y="-7" type="line"/>
      <point x="388" y="-7"/>
      <point x="417" y="48"/>
      <point x="425" y="110" type="curve"/>
      <point x="507" y="110" type="line"/>
      <point x="438" y="221" type="line"/>
      <point x="438" y="131"/>
      <point x="398.997" y="118.355"/>
      <point x="332" y="119" type="curve" smooth="yes"/>
      <point x="258.663" y="119.706" type="line" smooth="yes"/>
      <point x="202.665" y="120.245"/>
      <point x="168.663" y="145.706"/>
    </contour>
  </outline>
  <guideline angle="90" x="-2648" y="0"/>
  <guideline angle="0" x="0" y="1513"/>
</glyph>
<glyph name="e" format="2">
  <advance width="638"/>
  <unicode hex="0065"/>
  <outline>
    <contour>
      <point x="261" y="-4" type="curve" smooth="yes"/>
      <point x="545" y="-4" type="line"/>
      <point x="545" y="119" type="line"/>
      <point x="295" y="119" type="line" smooth="yes"/>
      <point x="220" y="119"/>
      <point x="187" y="155"/>
      <point x="187" y="227" type="curve" smooth="yes"/>
      <point x="187" y="341" type="line" smooth="yes"/>
      <point x="187" y="413"/>
      <point x="220" y="449"/>
      <point x="295" y="449" type="curve" smooth="yes"/>
      <point x="364" y="449" type="line" smooth="yes"/>
      <point x="439" y="449"/>
      <point x="469" y="413"/>
      <point x="469" y="341" type="curve" smooth="yes"/>
      <point x="469" y="306" type="line"/>
      <point x="596" y="221" type="line"/>
      <point x="596" y="337" type="line" smooth="yes"/>
      <point x="596" y="503"/>
      <point x="509" y="566"/>
      <point x="375" y="566" type="curve" smooth="yes"/>
      <point x="294" y="566" type="line" smooth="yes"/>
      <point x="148" y="566"/>
      <point x="58" y="462"/>
      <point x="58" y="314" type="curve" smooth="yes"/>
      <point x="58" y="196" type="line" smooth="yes"/>
      <point x="58" y="68"/>
      <point x="134" y="-4"/>
    </contour>
    <contour>
      <point x="78" y="221" type="line"/>
      <point x="596" y="221" type="line"/>
      <point x="596" y="325" type="line"/>
      <point x="78" y="325" type="line"/>
    </contour>
  </outline>
</glyph>
<glyph name="g" format="2">
  <advance width="618"/>
  <unicode hex="0067"/>
  <outline>
    <contour>
      <point x="290" y="168" type="curve"/>
      <point x="290" y="144" type="line"/>
      <point x="382" y="144" type="line" smooth="yes"/>
      <point x="496" y="144"/>
      <point x="558" y="202"/>
      <point x="558" y="322" type="curve" smooth="yes"/>
      <point x="558" y="629" type="line"/>
      <point x="449" y="629" type="line"/>
      <point x="449" y="399" type="line"/>
      <point x="474" y="487" type="line"/>
      <point x="433" y="487" type="line"/>
      <point x="433" y="545"/>
      <point x="390" y="566"/>
      <point x="320" y="566" type="curve" smooth="yes"/>
      <point x="233" y="566" type="line" smooth="yes"/>
      <point x="104" y="566"/>
      <point x="55" y="517"/>
      <point x="55" y="388" type="curve" smooth="yes"/>
      <point x="55" y="335" type="line" smooth="yes"/>
      <point x="55" y="211"/>
      <point x="120" y="168"/>
    </contour>
    <contour>
      <point x="181" y="-33" type="curve" smooth="yes"/>
      <point x="422" y="-33" type="line" smooth="yes"/>
      <point x="448" y="-33"/>
      <point x="462" y="-46"/>
      <point x="462" y="-65" type="curve" smooth="yes"/>
      <point x="462" y="-83"/>
      <point x="448" y="-96"/>
      <point x="422" y="-96" type="curve" smooth="yes"/>
      <point x="86" y="-96" type="line"/>
      <point x="86" y="-210" type="line"/>
      <point x="452" y="-210" type="line" smooth="yes"/>
      <point x="528" y="-210"/>
      <point x="561" y="-177"/>
      <point x="561" y="-101" type="curve" smooth="yes"/>
      <point x="561" y="-27" type="line" smooth="yes"/>
      <point x="561" y="43"/>
      <point x="528" y="73"/>
      <point x="452" y="73" type="curve" smooth="yes"/>
      <point x="237" y="74" type="line" smooth="yes"/>
      <point x="209" y="74"/>
      <point x="197" y="85"/>
      <point x="197" y="110" type="curve" smooth="yes"/>
      <point x="197" y="135"/>
      <point x="209" y="144"/>
      <point x="236" y="144" type="curve" smooth="yes"/>
      <point x="318" y="144" type="line"/>
      <point x="310" y="194" type="line"/>
      <point x="213" y="194" type="line"/>
      <point x="213" y="160" type="line"/>
      <point x="181" y="160" type="line"/>
      <point x="111" y="160"/>
      <point x="79" y="123"/>
      <point x="79" y="63" type="curve" smooth="yes"/>
      <point x="79" y="-4"/>
      <point x="111" y="-33"/>
    </contour>
    <contour>
      <point x="179" y="321" type="curve" smooth="yes"/>
      <point x="179" y="391" type="line" smooth="yes"/>
      <point x="179" y="430"/>
      <point x="199" y="451"/>
      <point x="238" y="451" type="curve" smooth="yes"/>
      <point x="368" y="451" type="line" smooth="yes"/>
      <point x="407" y="451"/>
      <point x="428" y="430"/>
      <point x="428" y="391" type="curve" smooth="yes"/>
      <point x="428" y="321" type="line" smooth="yes"/>
      <point x="428" y="282"/>
      <point x="407" y="261"/>
      <point x="368" y="261" type="curve" smooth="yes"/>
      <point x="238" y="261" type="line" smooth="yes"/>
      <point x="199" y="261"/>
      <point x="179" y="282"/>
    </contour>
  </outline>
</glyph>
<glyph name="h" format="2">
  <advance width="630"/>
  <unicode hex="0068"/>
  <outline>
    <contour>
      <point x="63" y="778" type="line"/>
      <point x="63" y="0" type="line"/>
      <point x="189" y="0" type="line"/>
      <point x="189" y="362" type="line"/>
      <point x="173" y="432" type="line"/>
      <point x="172" y="778" type="line"/>
    </contour>
    <contour>
      <point x="344" y="436" type="curve" smooth="yes"/>
      <point x="414" y="436"/>
      <point x="448" y="402"/>
      <point x="448" y="323" type="curve" smooth="yes"/>
      <point x="448" y="0" type="line"/>
      <point x="571" y="0" type="line"/>
      <point x="571" y="380" type="line" smooth="yes"/>
      <point x="571" y="498"/>
      <point x="513" y="559"/>
      <point x="392" y="559" type="curve" smooth="yes"/>
      <point x="350" y="559" type="line" smooth="yes"/>
      <point x="249" y="559"/>
      <point x="213" y="507"/>
      <point x="193" y="432" type="curve"/>
      <point x="173" y="432" type="line"/>
      <point x="189" y="333" type="line"/>
      <point x="189" y="423"/>
      <point x="260" y="436"/>
    </contour>
  </outline>
</glyph>
<glyph name="j" format="2">
  <advance width="291"/>
  <unicode hex="006A"/>
  <outline>
    <contour>
      <point x="96" y="778" type="line"/>
      <point x="96" y="652" type="line"/>
      <point x="222" y="652" type="line"/>
      <point x="222" y="778" type="line"/>
    </contour>
    <contour>
      <point x="223" y="-82" type="curve" smooth="yes"/>
      <point x="223" y="556" type="line"/>
      <point x="97" y="556" type="line"/>
      <point x="97" y="-38" type="line" smooth="yes"/>
      <point x="97" y="-77"/>
      <point x="76" y="-98"/>
      <point x="37" y="-98" type="curve" smooth="yes"/>
      <point x="-55" y="-98" type="line"/>
      <point x="-55" y="-222" type="line"/>
      <point x="83" y="-222" type="line" smooth="yes"/>
      <point x="177" y="-222"/>
      <point x="223" y="-176"/>
    </contour>
  </outline>
</glyph>
<glyph name="k" format="2">
  <advance width="555"/>
  <unicode hex="006B"/>
  <outline>
    <contour>
      <point x="48" y="0" type="line"/>
      <point x="171" y="0" type="line"/>
      <point x="171" y="240" type="line"/>
      <point x="260" y="240" type="line"/>
      <point x="430" y="0" type="line"/>
      <point x="573" y="0" type="line"/>
      <point x="323" y="350" type="line"/>
      <point x="322" y="279" type="line"/>
      <point x="544" y="556" type="line"/>
      <point x="409" y="556" type="line"/>
      <point x="251" y="364" type="line"/>
      <point x="171" y="364" type="line"/>
      <point x="171" y="778" type="line"/>
      <point x="48" y="778" type="line"/>
    </contour>
  </outline>
</glyph>
<glyph name="l" format="2">
  <advance width="249"/>
  <unicode hex="006C"/>
  <outline>
    <contour>
      <point x="65" y="778" type="line"/>
      <point x="65" y="1.09139e-11" type="line"/>
      <point x="191" y="1.09139e-11" type="line"/>
      <point x="191" y="778" type="line"/>
    </contour>
  </outline>
</glyph>
<glyph name="m" format="2">
  <advance width="940"/>
  <unicode hex="006D"/>
  <outline>
    <contour>
      <point x="49" y="556" type="line"/>
      <point x="49" y="0" type="line"/>
      <point x="175" y="0" type="line"/>
      <point x="175" y="329" type="line"/>
      <point x="159" y="432" type="line"/>
      <point x="159" y="556" type="line"/>
    </contour>
    <contour>
      <point x="306" y="436" type="curve" smooth="yes"/>
      <point x="378" y="436"/>
      <point x="410" y="403"/>
      <point x="410" y="329" type="curve" smooth="yes"/>
      <point x="410" y="0" type="line"/>
      <point x="533" y="0" type="line"/>
      <point x="533" y="380" type="line" smooth="yes"/>
      <point x="533" y="498"/>
      <point x="499" y="559"/>
      <point x="378" y="559" type="curve" smooth="yes"/>
      <point x="336" y="559" type="line" smooth="yes"/>
      <point x="235" y="559"/>
      <point x="195" y="507"/>
      <point x="175" y="432" type="curve"/>
      <point x="159" y="432" type="line"/>
      <point x="175" y="329" type="line"/>
      <point x="175" y="419"/>
      <point x="222" y="436"/>
    </contour>
    <contour>
      <point x="665" y="436" type="curve" smooth="yes"/>
      <point x="736" y="436"/>
      <point x="767" y="403"/>
      <point x="767" y="329" type="curve"/>
      <point x="767" y="0" type="line"/>
      <point x="890" y="0" type="line"/>
      <point x="890" y="380" type="line" smooth="yes"/>
      <point x="890" y="498"/>
      <point x="856" y="559"/>
      <point x="735" y="559" type="curve" smooth="yes"/>
      <point x="695" y="559" type="line" smooth="yes"/>
      <point x="594" y="559"/>
      <point x="554" y="507"/>
      <point x="534" y="432" type="curve"/>
      <point x="509" y="432" type="line"/>
      <point x="533" y="329" type="line"/>
      <point x="533" y="419"/>
      <point x="581" y="436"/>
    </contour>
  </outline>
</glyph>
<glyph name="o" format="2">
  <advance width="633"/>
  <unicode hex="006F"/>
  <anchor x="296" y="278" name="center"/>
  <anchor x="555" y="-1" name="ogonek"/>
  <anchor x="315" y="568" name="top"/>
  <anchor x="581" y="556" name="topright"/>
  <anchor x="302" y="-13" name="bottom"/>
  <outline>
    <contour>
      <point x="474" y="341" type="curve" smooth="yes"/>
      <point x="473" y="221" type="line" smooth="yes"/>
      <point x="472" y="150"/>
      <point x="421" y="119"/>
      <point x="347" y="119" type="curve" smooth="yes"/>
      <point x="297" y="119" type="line" smooth="yes"/>
      <point x="223" y="119"/>
      <point x="171" y="150"/>
      <point x="171" y="221" type="curve"/>
      <point x="170" y="341" type="line" smooth="yes"/>
      <point x="169" y="413"/>
      <point x="218" y="443"/>
      <point x="296" y="443" type="curve" smooth="yes"/>
      <point x="348" y="443" type="line" smooth="yes"/>
      <point x="426" y="443"/>
      <point x="474" y="413"/>
    </contour>
    <contour>
      <point x="43" y="314" type="curve" smooth="yes"/>
      <point x="43" y="218" type="line"/>
      <point x="43" y="75"/>
      <point x="122.707" y="-4"/>
      <point x="261" y="-4" type="curve"/>
      <point x="381.562" y="-4" type="line" smooth="yes"/>
      <point x="526.562" y="-4"/>
      <point x="593" y="100"/>
      <point x="593" y="248" type="curve" smooth="yes"/>
      <point x="593" y="338" type="line" smooth="yes"/>
      <point x="593" y="482"/>
      <point x="528" y="566"/>
      <point x="377" y="566" type="curve" smooth="yes"/>
      <point x="274" y="566" type="line" smooth="yes"/>
      <point x="129" y="566"/>
      <point x="43" y="462"/>
    </contour>
  </outline>
</glyph>
<glyph name="p" format="2">
  <advance width="628"/>
  <unicode hex="0070"/>
  <outline>
    <contour>
      <point x="68" y="556" type="line"/>
      <point x="68" y="-211" type="line"/>
      <point x="193" y="-211" type="line"/>
      <point x="193" y="119" type="line"/>
      <point x="193" y="357" type="line"/>
      <point x="179" y="432" type="line"/>
      <point x="177" y="556" type="line"/>
    </contour>
    <contour>
      <point x="359" y="121" type="curve" smooth="yes"/>
      <point x="156" y="121" type="line"/>
      <point x="156" y="0" type="line"/>
      <point x="358" y="0" type="line" smooth="yes"/>
      <point x="488" y="0"/>
      <point x="572" y="90"/>
      <point x="572" y="238" type="curve" smooth="yes"/>
      <point x="572" y="380" type="line" smooth="yes"/>
      <point x="572" y="498"/>
      <point x="514" y="559"/>
      <point x="393" y="559" type="curve" smooth="yes"/>
      <point x="351" y="559" type="line" smooth="yes"/>
      <point x="236" y="559"/>
      <point x="208" y="487"/>
      <point x="194" y="432" type="curve"/>
      <point x="179" y="432" type="line"/>
      <point x="193" y="333" type="line"/>
      <point x="193" y="416"/>
      <point x="233" y="432"/>
      <point x="302" y="432" type="curve"/>
      <point x="302" y="432"/>
      <point x="358" y="432"/>
      <point x="358" y="432" type="curve"/>
      <point x="422" y="432"/>
      <point x="449" y="403"/>
      <point x="449" y="341" type="curve" smooth="yes"/>
      <point x="449" y="211" type="line" smooth="yes"/>
      <point x="449" y="149"/>
      <point x="422" y="121"/>
    </contour>
  </outline>
  <guideline angle="90" x="61" y="0"/>
</glyph>
<glyph name="q" format="2">
  <advance width="617"/>
  <unicode hex="0071"/>
  <outline>
    <contour>
      <point x="550" y="556" type="line"/>
      <point x="425" y="556" type="line"/>
      <point x="425" y="186" type="line"/>
      <point x="441" y="129" type="line"/>
      <point x="441" y="-211" type="line"/>
      <point x="550" y="-211" type="line"/>
    </contour>
    <contour>
      <point x="169" y="354" type="curve"/>
      <point x="169" y="414"/>
      <point x="200" y="439"/>
      <point x="260" y="439" type="curve"/>
      <point x="432" y="439" type="line"/>
      <point x="463" y="556" type="line"/>
      <point x="463" y="556"/>
      <point x="372" y="556"/>
      <point x="235" y="556" type="curve" smooth="yes"/>
      <point x="98" y="556"/>
      <point x="46" y="481"/>
      <point x="46" y="374" type="curve" smooth="yes"/>
      <point x="46" y="175" type="line" smooth="yes"/>
      <point x="46" y="50"/>
      <point x="115" y="-6"/>
      <point x="225" y="-4" type="curve"/>
      <point x="267" y="-4" type="line"/>
      <point x="368" y="-4"/>
      <point x="404" y="48"/>
      <point x="424" y="123" type="curve"/>
      <point x="455" y="123" type="line"/>
      <point x="425" y="222" type="line"/>
      <point x="425" y="132"/>
      <point x="386" y="120"/>
      <point x="307" y="120" type="curve" smooth="yes"/>
      <point x="260" y="120" type="line" smooth="yes"/>
      <point x="200" y="120"/>
      <point x="169" y="139"/>
      <point x="169" y="200" type="curve" smooth="yes"/>
      <point x="169" y="221"/>
      <point x="169" y="353"/>
    </contour>
  </outline>
  <guideline angle="90" x="-2939" y="0"/>
  <guideline angle="0" x="0" y="354"/>
</glyph>
<glyph name="r" format="2">
  <advance width="445"/>
  <unicode hex="0072"/>
  <outline>
    <contour>
      <point x="62" y="556" type="line"/>
      <point x="62" y="0" type="line"/>
      <point x="188" y="0" type="line"/>
      <point x="188" y="362" type="line"/>
      <point x="171" y="432" type="line"/>
      <point x="171" y="556" type="line"/>
    </contour>
    <contour>
      <point x="296" y="432" type="curve" smooth="yes"/>
      <point x="410" y="432" type="line"/>
      <point x="410" y="563" type="line"/>
      <point x="337" y="563" type="line" smooth="yes"/>
      <point x="238" y="563"/>
      <point x="210" y="513"/>
      <point x="188" y="432" type="curve"/>
      <point x="107" y="432" type="line"/>
      <point x="188" y="330" type="line"/>
      <point x="188" y="402"/>
      <point x="221" y="432"/>
    </contour>
  </outline>
</glyph>
<glyph name="s" format="2">
  <advance width="570"/>
  <unicode hex="0073"/>
  <outline>
    <contour>
      <point x="57" y="396" type="curve" smooth="yes"/>
      <point x="57" y="372" type="line" smooth="yes"/>
      <point x="57" y="268"/>
      <point x="113" y="251"/>
      <point x="187" y="238" type="curve" smooth="yes"/>
      <point x="410" y="200" type="line"/>
      <point x="410" y="120" type="line"/>
      <point x="78" y="120" type="line"/>
      <point x="78" y="0" type="line"/>
      <point x="360" y="0" type="line" smooth="yes"/>
      <point x="464" y="0"/>
      <point x="520" y="53"/>
      <point x="520" y="157" type="curve" smooth="yes"/>
      <point x="520" y="194" type="line" smooth="yes"/>
      <point x="520" y="298"/>
      <point x="464" y="319"/>
      <point x="362" y="335" type="curve" smooth="yes"/>
      <point x="167" y="366" type="line"/>
      <point x="167" y="436" type="line"/>
      <point x="486" y="436" type="line"/>
      <point x="486" y="556" type="line"/>
      <point x="217" y="556" type="line" smooth="yes"/>
      <point x="113" y="556"/>
      <point x="57" y="500"/>
    </contour>
  </outline>
</glyph>
<glyph name="u" format="2">
  <advance width="596"/>
  <unicode hex="0075"/>
  <outline>
    <contour>
      <point x="537" y="0" type="line"/>
      <point x="537" y="559" type="line"/>
      <point x="412" y="559" type="line"/>
      <point x="412" y="197" type="line"/>
      <point x="428" y="127" type="line"/>
      <point x="433" y="0" type="line"/>
    </contour>
    <contour>
      <point x="171" y="238" type="curve"/>
      <point x="171" y="559" type="line"/>
      <point x="48" y="559" type="line"/>
      <point x="48" y="179" type="line" smooth="yes"/>
      <point x="48" y="65"/>
      <point x="103" y="0"/>
      <point x="205" y="0" type="curve" smooth="yes"/>
      <point x="254" y="0" type="line" smooth="yes"/>
      <point x="355" y="0"/>
      <point x="391" y="52"/>
      <point x="411" y="127" type="curve"/>
      <point x="428" y="127" type="line"/>
      <point x="412" y="238" type="line"/>
      <point x="412" y="157"/>
      <point x="359" y="127"/>
      <point x="280" y="127" type="curve" smooth="yes"/>
      <point x="204" y="127"/>
      <point x="171" y="157"/>
    </contour>
  </outline>
</glyph>
<glyph name="w" format="2">
  <advance width="880"/>
  <unicode hex="0077"/>
  <outline>
    <contour>
      <point x="16" y="556" type="line"/>
      <point x="156" y="0" type="line"/>
      <point x="340" y="0" type="line"/>
      <point x="430" y="432" type="line"/>
      <point x="451" y="432" type="line"/>
      <point x="541" y="0" type="line"/>
      <point x="720" y="0" type="line"/>
      <point x="864" y="556" type="line"/>
      <point x="743" y="556" type="line"/>
      <point x="642" y="110" type="line"/>
      <point x="688" y="124" type="line"/>
      <point x="572" y="124" type="line"/>
      <point x="627" y="110" type="line"/>
      <point x="527" y="556" type="line"/>
      <point x="354" y="556" type="line"/>
      <point x="256" y="110" type="line"/>
      <point x="311" y="124" type="line"/>
      <point x="195" y="124" type="line"/>
      <point x="242" y="110" type="line"/>
      <point x="139" y="556" type="line"/>
    </contour>
  </outline>
</glyph>
<glyph name="y" format="2">
  <advance width="573"/>
  <unicode hex="0079"/>
  <outline>
    <contour>
      <point x="14" y="556" type="line"/>
      <point x="206" y="0" type="line"/>
      <point x="320" y="0" type="line"/>
      <point x="320" y="134" type="line"/>
      <point x="284" y="134" type="line"/>
      <point x="145" y="556" type="line"/>
    </contour>
    <contour>
      <point x="379" y="-28" type="curve" smooth="yes"/>
      <point x="574" y="556" type="line"/>
      <point x="441" y="556" type="line"/>
      <point x="253" y="-97" type="line"/>
      <point x="89" y="-97" type="line"/>
      <point x="89" y="-212" type="line"/>
      <point x="194" y="-212" type="line" smooth="yes"/>
      <point x="330" y="-212"/>
      <point x="350" y="-114"/>
    </contour>
  </outline>
</glyph>
<glyph name="uni0308" format="2">
  <unicode hex="0308"/>
  <anchor x="0" y="756" name="top"/>
  <anchor x="0" y="556" name="_top"/>
  <outline>
    <contour>
      <point x="-200" y="760" type="line"/>
      <point x="-200" y="640" type="line"/>
      <point x="-80" y="640" type="line"/>
      <point x="-80" y="760" type="line"/>
    </contour>
    <contour>
      <point x="80" y="760" type="line"/>
      <point x="80" y="640" type="line"/>
      <point x="200" y="640" type="line"/>
      <point x="200" y="760" type="line"/>
    </contour>
  </outline>
</glyph>
<glyph name="F.001" format="2">
	<advance width="657"/>
	<outline>
		<contour>
			<point x="244" y="756" type="line"/>
			<point x="114" y="756" type="line"/>
			<point x="114" y="0" type="line"/>
			<point x="244" y="0" type="line"/>
		</contour>
		<contour>
			<point x="626" y="629" type="line"/>
			<point x="626" y="756" type="line"/>
			<point x="244" y="756" type="line"/>
			<point x="244" y="629" type="line"/>
		</contour>
		<contour>
			<point x="244" y="449" type="curve"/>
			<point x="244" y="269" type="line"/>
			<point x="551" y="269" type="line"/>
			<point x="551" y="396" type="line"/>
			<point x="305" y="396" type="line" smooth="yes"/>
			<point x="265" y="396"/>
			<point x="244" y="415"/>
		</contour>
	</outline>
</glyph>
<glyph name="G.ss01" format="2">
	<advance width="703"/>
	<outline>
		<contour>
			<point x="613" y="756" type="line"/>
			<point x="297" y="756" type="line" smooth="yes"/>
			<point x="185" y="756"/>
			<point x="92" y="663"/>
			<point x="92" y="528" type="curve"/>
			<point x="92" y="230" type="line"/>
			<point x="92" y="71"/>
			<point x="149" y="0"/>
			<point x="287" y="0" type="curve" smooth="yes"/>
			<point x="337" y="0" type="line" smooth="yes"/>
			<point x="447" y="0"/>
			<point x="502" y="39"/>
			<point x="513" y="124" type="curve"/>
			<point x="531" y="124" type="line"/>
			<point x="530" y="0" type="line"/>
			<point x="635" y="0" type="line"/>
			<point x="635" y="389" type="line"/>
			<point x="505" y="389" type="line"/>
			<point x="505" y="229" type="line"/>
			<point x="505" y="141"/>
			<point x="464" y="127"/>
			<point x="391" y="127" type="curve"/>
			<point x="228" y="127" type="line"/>
			<point x="228" y="507" type="line" smooth="yes"/>
			<point x="228" y="607"/>
			<point x="268" y="629"/>
			<point x="345" y="629" type="curve" smooth="yes"/>
			<point x="613" y="629" type="line"/>
		</contour>
	</outline>
</glyph>
<glyph name="G.ss02" format="2">
	<advance width="733"/>
	<outline>
		<contour>
			<point x="613" y="756" type="line"/>
			<point x="297" y="756" type="line" smooth="yes"/>
			<point x="185" y="756"/>
			<point x="92" y="663"/>
			<point x="92" y="528" type="curve"/>
			<point x="92" y="230" type="line"/>
			<point x="92" y="71"/>
			<point x="159" y="0"/>
			<point x="297" y="0" type="curve" smooth="yes"/>
			<point x="367" y="0" type="line" smooth="yes"/>
			<point x="477" y="0"/>
			<point x="532" y="39"/>
			<point x="543" y="124" type="curve"/>
			<point x="561" y="124" type="line"/>
			<point x="560" y="0" type="line"/>
			<point x="665" y="0" type="line"/>
			<point x="665" y="429" type="line"/>
			<point x="391" y="429" type="line"/>
			<point x="391" y="309" type="line"/>
			<point x="535" y="309" type="line"/>
			<point x="535" y="229" type="line"/>
			<point x="535" y="141"/>
			<point x="494" y="127"/>
			<point x="421" y="127" type="curve"/>
			<point x="228" y="127" type="line"/>
			<point x="228" y="507" type="line" smooth="yes"/>
			<point x="228" y="607"/>
			<point x="268" y="629"/>
			<point x="345" y="629" type="curve" smooth="yes"/>
			<point x="613" y="629" type="line"/>
		</contour>
	</outline>
</glyph>
<glyph name="zero.001" format="2">
	<advance width="778"/>
	<outline>
		<contour>
			<point x="434" y="127" type="curve" smooth="yes"/>
			<point x="228" y="127" type="line"/>
			<point x="228" y="508" type="line" smooth="yes"/>
			<point x="228" y="607"/>
			<point x="270" y="629"/>
			<point x="344" y="629" type="curve" smooth="yes"/>
			<point x="550" y="629" type="line"/>
			<point x="550" y="248" type="line" smooth="yes"/>
			<point x="550" y="149"/>
			<point x="508" y="127"/>
		</contour>
		<contour>
			<point x="686" y="230" type="curve" smooth="yes"/>
			<point x="686" y="525" type="line"/>
			<point x="686" y="679"/>
			<point x="639" y="756"/>
			<point x="483" y="756" type="curve" smooth="yes"/>
			<point x="296" y="756" type="line" smooth="yes"/>
			<point x="167" y="756"/>
			<point x="92" y="663"/>
			<point x="92" y="526" type="curve" smooth="yes"/>
			<point x="92" y="230" type="line" smooth="yes"/>
			<point x="92" y="76"/>
			<point x="140" y="0"/>
			<point x="296" y="0" type="curve" smooth="yes"/>
			<point x="482" y="0" type="line" smooth="yes"/>
			<point x="621" y="0"/>
			<point x="686" y="83"/>
		</contour>
	</outline>
</glyph>
